# xmcd CD database file
#
# Track frame offsets:
#	150
#	23780
#	49493
#	77133
#	95550
#	114678
#	150995
#	181973
#	211693
#	252510
#	287113
#
# Disc length: 4397 seconds
#
# Revision: 3
# Processed by: cddbd v1.4PL0 Copyright (c) Steve Scherf et al.
# Submitted via: NotifyCDPlayer 1.60beta13
#
DISCID=94112b0b
DTITLE=Eric Clapton - Bluespower 2001 (Disk Two)
DYEAR=1900
DGENRE=
TTITLE0=Got you on my mind
TTITLE1=Ain't Gonna Stand For It
TTITLE2=Don't Let Me Be Lonely Tonight
TTITLE3=Travelling Light
TTITLE4=Hoochie Coochie Man
TTITLE5=Have You Ever Loved A Woman
TTITLE6=Badge
TTITLE7=Wonderful Tonight
TTITLE8=Layla
TTITLE9=Sunshine Of Your Love
TTITLE10=Over The Rainbow
EXTD=Recorded Live in London (Royal Albert Hall) 10th February 2001.\nPromom
EXTD=otion CD, not for sale!
EXTT0=
EXTT1=
EXTT2=
EXTT3=
EXTT4=
EXTT5=
EXTT6=
EXTT7=
EXTT8=
EXTT9=
EXTT10=
PLAYORDER=
